<?xml version="1.0" encoding="UTF-8" standalone="no"?>
<svg xmlns="http://www.w3.org/2000/svg" height="9.675em" width="24.874em" version="1.1" viewBox="0 -10 710.6875 286.436">
<metadata>
Created by Luther Tychonievich using Inkscape 0.48.1. 
“the future of the past” and “.org” are in the Helvetica typeface by Max Miedinger and Eduard Hoffmann. 
“dev” is in a modified version of the Mentor Sans typeface by Michael Harvey. 
“Roots” is modeled on the handwriting used on the United States Declaration of Independence. 

Luther Tychonievich's original slogan was “build the future of the past,” 
created with the rest of the graphic on 23 October 2012.

Tom Wetmore suggested reducing the slogan to “the future of the past” 
on the rootsdev mailing list on 13 March 2013. 

This work is distributed under a Creative Commons Attribution-ShareAlike 3.0 Unported License. http://creativecommons.org/licenses/by-sa/3.0/
</metadata>
	<path d="m181.69516,99.546c-16.50841,11.601-23.6472,17.401-33.01684,30.786s-18.29313,27.663-27.2166,41.94c-8.92346,14.278-26.324242,38.817-38.370932,46.849-12.046684,8.031-30.785968,11.154-42.38648,10.262-11.600513-0.893-25.431896-11.601-24.539548-23.201,0.892348-11.601,12.33774-33.596,27.216593-50.864,15.290507-17.746,34.576483-33.48706,59.018667-44.3316,20.33611-9.02275,35.57013-10.5484,48.06299-9.2094,12.49286,1.338,27.21658,5.354,33.01685,15.17,5.80026,9.816,0,24.539-9.81582,32.571-9.81582,8.031-33.01684,15.169-33.01684,15.169s4.01555,2.231,5.35407,7.585-1.64617,24.08647-4.25798,31.54847c-3.1232,8.924-3.1232,16.955,3.12322,18.293,6.24644,1.339,16.73179-5.43913,22.53182-9.45447,5.80049-4.01566,12.04669-12.047,17.40076-17.847,5.35409-5.8,13.38521-12.047,22.30868-14.724,8.92348-2.677-15.61607,16.509-20.97016,22.309-5.35407,5.8-8.22375,6.51045-16.50843,11.2977-7.60938,4.39703-20.29398,11.99147-27.88587,11.68547-9.90741-0.399-19.63165-8.6207-20.07782-13.5287-0.69732-7.67,2.67704-11.6,5.80026-19.631,3.12321-8.032,8.71971-15.04047,6.48884-19.50147-2.23088-4.462-5.80025-3.124-9.81582-3.57s-3.12322-12.047,0.44617-10.708c3.5694,1.339,3.5694,3.123,10.26199,2.677,6.6926-0.446,15.51518-4.577,20.07781-8.477,6.67214-5.704,14.30305-13.263,15.12606-21.616,0.88349-8.967-4.23267-18.6605-12.44902-21.217-18.62504-5.79515-30.75994-5.99731-56.66404,4.64755-12.015861,4.93772-34.665486,16.387-55.585791,41.048-14.307029,16.865-27.965849,41.01545-26.677469,50.67845,1.840459,13.803,15.337231,18.739,22.029828,18.293,12.093973-0.807,21.241725-4.069,33.01684-12.493,24.10313-17.244,35.012082-39.519,50.417622-61.126,5.68071-7.968,14.72373-20.524,24.53955-28.555,9.81581-8.031,21.41633-19.632,25.43189-22.309s7.58495-2.677,7.58495-0.446z"/>
	<path d="m226.73941,180.088c-3.56939-0.446-8.03113,4.462-7.13878,8.031,0.89235,3.57-0.44618,8.478,4.90791,8.478s10.70817,1.784,18.29311-0.893c7.58496-2.677,14.72374-11.154,14.72374-11.154s-9.36965,7.585-15.61607,8.031c-6.24644,0.446-9.81583,1.339-11.15435-2.677,0.94647-4.462-0.44618-9.37-4.01556-9.816z"/>
	<path d="m223.19153,192.146c-0.78873,5.047-6.30985,13.093-11.51547,17.825s-9.14928,8.203-14.03941,8.203-5.67886-2.682-5.36337-6.152c0.31549-3.471,2.68168-7.888,7.25632-14.04,3.97663-6.097,11.75389-15.08,17.82532-14.828,3.47042,0.789,11.35774,3.313,9.30703,0.947-2.0507-2.367-3.47042-6.468-6.94083-5.995-3.47042,0.473-8.83379,0.473-11.83097,2.366-2.99717,1.893-27.92108,23.662-28.55206,29.341s-0.47323,14.513,5.83661,14.986c6.30985,0.473,16.7211-2.997,23.34643-7.572,6.62535-4.574,14.03941-11.515,16.09012-15.143,2.0507-3.629,6.1521-6.941,4.89013-9.307-1.26196-2.367-5.8366-6.784-5.99435-4.417-0.15774,2.366-0.3155,3.786-0.3155,3.786z"/>
	<path d="m310.10968,183.627c-9.938,7.099-15.77279,8.729-22.71545,7.257-8.60836-1.827-5.36337-6.31-6.30984-9.781-0.94648-3.47-2.83944-7.887-5.67886-7.571-2.83944,0.315-7.88732,0.946-8.20281,4.416-0.31549,3.471,2.20844,8.834,5.36337,9.781,3.15493,0.946,9.15465,4.385,14.82814,5.363,9.14928,1.578,15.77463-2.839,23.50418-8.203,2.48958-1.727,5.84805-7.801,5.55472-7.445-2.2195,2.694-3.10935,3.873-6.34345,6.183z"/>
	<path d="m269.25342,177.633c-7.25632,4.101-34.38867,14.828-34.70416,33.442s13.72392,14.197,19.87602,11.673c6.15209-2.524,10.88448-7.571,16.24786-14.67,5.36337-7.099,9.78026-10.727,9.78026-16.563,0-5.837-0.63099-14.355-2.68169-10.569-2.05069,3.786-3.31267,8.991-6.46758,14.355-3.15493,5.363-5.99437,8.991-10.09577,13.881-4.10139,4.89-4.10139,9.78-8.83378,10.411-4.73238,0.631-7.57182,0.316-7.88731-2.997-0.31549-3.312,2.52395-10.884,7.41408-16.405s10.88448-11.516,14.3549-12.147c3.4704-0.631,5.04788-1.262,5.8366,1.262,0.78873,2.524,0.61133,3.091-0.78872,5.995-1.75095,3.63,8.04504-4.575,7.88729-7.257-0.15774-2.681-1.26196-10.253-4.25914-10.569-2.99717-0.315-5.67886,0.158-5.67886,0.158z"/>
	<path d="m377.64575,184.365c-4.4169,2.209-20.82251,12.62-29.02531,16.721-8.20279,4.102-29.65628,16.406-34.07318,17.983-4.41689,1.578-11.67321,6.626-17.66757,5.364-5.99435-1.262-12.3042-2.209-9.14928-7.887,3.15493-5.679,32.49571-43.538,33.4422-46.062,0.94648-2.524,3.7859-6.626,8.83378-15.459,5.04789-8.834,15.45913-20.823,20.19152-25.871,4.73238-5.048,10.41124-2.839,5.67886,4.102-4.73239,6.94-12.6197,21.138-18.61405,28.709-5.99435,7.572-14.19716,14.198-17.98307,20.507-3.78591,6.31-14.19716,19.561-16.4056,25.871-2.20845,6.31-7.57182,9.149-0.94647,9.149,6.62533,0,9.14926,0.316,16.72109-2.839,7.57182-3.155,37.54359-18.614,41.64499-22.716,4.1014-4.101,7.88732-8.203,12.6197-10.727,4.73239-2.524,10.41125-0.631,4.73239,3.155z"/>
	<path d="m268.01214,165.909c-4.4169,0.158-5.99435,3.155,0,2.682,5.99436-0.474,47.32385-3.155,60.89003-3.628,13.56617-0.474,29.34078-0.158,33.28444-0.789s7.72957-0.947,11.04224-1.42c3.31266-0.473,5.04788-4.101,0.31549-2.682-4.73238,1.42-9.46477,1.578-14.82813,2.209-5.36339,0.631-17.35209,1.104-22.24222,1.104s-24.92389,1.262-29.49853,1.578c-4.57464,0.315-22.39997,0.946-28.39432,1.104-5.99436,0.158-4.25914-0.316-10.569-0.158z"/>
	<path d="m334.89653,202.506c-4.05553,1.816-7.05639,6.058-8.51829,10.254-0.76139,2.185-1.12482,5.287,0.31549,7.098,3.17489,3.993,12.41788,2.201,17.50983,1.893,5.06836-0.307,7.24223-0.812,11.35772-3.786,4.75285-3.434,9.07744-8.1,11.19997-13.566,1.5055-3.877-0.52685-8.467,0.63098-12.462,0.65542-2.261,2.31274-4.102,3.47042-6.152,0.68306-1.21,3.43939-3.666,2.05071-3.628-4.71605,0.128-8.5896,1.501-11.19999,4.575-2.89807,3.412-1.87034,8.759-2.99716,13.092-0.99255,3.817-0.92488,8.22-3.31268,11.358-2.84495,3.74-6.82337,7.955-11.51548,8.203-3.02962,0.16-7.80969-1.825-8.67603-4.732-0.84205-2.826,3.93582-4.693,4.57464-7.572,0.32079-1.446,0.6103-3.408-0.47325-4.417-1.07807-1.004-3.07226-0.76-4.41688-0.158z"/>
	<path d="m572.08847,213.591-8.32,0,0,8.48,8.32,0,0-8.48"/>
	<path d="m636.72722,197.751c0-6.08,4.16001-11.2,10.72-11.2h2.64v-7.28c-0.55999-0.16-0.96-0.24-1.84-0.24-5.27999,0-8.96,3.28-11.76,8.16h-0.16v-6.96h-6.64v41.84h7.04v-24.32"/>
	<path d="m660.72597,201.031c0-5.36,0.56002-15.68,11.44-15.68,10.15999,0,11.28,10.96,11.28,17.76,0,11.12-6.96,14.08-11.44,14.08-7.67999,0-11.28-6.96-11.28-16.16m29.44-20.8-6.64,0,0,6.16c-1.75999-2.56-5.04-7.36-12.64-7.36-11.11998,0-17.44,9.12-17.44,20.88,0,10,4.16002,23.36,18.4,23.36,5.6,0,9.28001-2.56,11.28-5.92v2.32c0,5.12-0.24001,14.16-11.92,14.16-1.67999,0-8.16,0-9.44-6.64h-7.04c1.36,11.12,11.04001,12.48,16,12.48,19.35999,0,19.44-15.04,19.44-21.04v-38.4"/>
	<path d="m581.79597,201.111c0,10.8,6.08002,22.08,19.44,22.08,13.35999,0,19.44-11.28,19.44-22.08s-6.08001-22.08-19.44-22.08c-13.35998,0-19.44,11.28-19.44,22.08m7.28,0c0-5.6,2.08001-16,12.16-16s12.16,10.4,12.16,16-2.08001,16-12.16,16-12.16-10.4-12.16-16"/>
	<path d="m442.46027,222.92979c-0.48-9.47999-0.84-22.36826-0.84-33.52825v-17.76c0-8.87999,0.36-28.20001,0.84-38.16-6.83999,0.84-12.76808,0.71982-19.68,0.26368,0.96,8.75999,1.2,25.65633,1.32,33.69632-2.4-0.72-6.24-1.2-8.88-1.2-18.11998,0-30.24,11.16002-30.24,29.4,0,18.83998,9.48001,27.6,22.08,27.6,7.79999,0,13.8-3.36,16.8-6v6c6.23999-0.96,13.36789-0.88789,18.6-0.31175zm-18.24-45.64825c0.12,7.07999-0.12,23.52-0.24,30.72-2.64,2.75999-6.36,5.28-10.56,5.28-6.83999,0-10.56-6.96001-10.56-17.64,0-12.47999,4.32001-20.76,12.6-20.76,2.76,0,6.48,0.72,8.76,2.4z" stroke="#000" stroke-miterlimit="4" stroke-width="4" fill="none"/>
	<path d="m505.16589,218.56154c-0.71999-2.4-2.16-7.68-2.4-9.72-4.07999,3.11999-9.72,5.04-16.08,5.04-9.47999,0-15.6-4.68001-16.44-14.88,0-0.6-0.12-1.08-0.12-1.68,11.03999-0.12,23.04002-0.36,34.32-0.6,0.12-1.44,0.24-2.28,0.24-3.6,0-14.63999-6.48001-26.88-24-26.88-16.31998,0-28.44,10.92002-28.44,28.56,0,19.43998,10.44002,28.44,29.88,28.44,11.39999,0,20.04001-3,23.04-4.68zm-15.6-29.4c-5.51999,0.12-13.68,0.36-19.32,0.36,0.84-11.03999,5.52001-15.12,10.56-15.12,5.64,0,8.52001,6.00001,8.76,14.76z" stroke="#000" stroke-miterlimit="4" stroke-width="4" fill="none"/>
	<path d="m569.23464,167.32154c-2.63999,0.24-5.76,0.36-8.16,0.36-2.75999,0-5.64-0.12-8.04-0.36-1.19999,5.99999-3,12.6-4.68,18.36-1.07999,3.71999-2.64,9-3.84,12.96-0.47999,1.68-2.04,6.6-2.64,8.76h-0.48c-0.47999-1.68-2.16-6.84-2.76-8.64-1.07999-3.36-2.64-8.16001-4.08-12.48-2.15999-6.84-4.32-13.92001-5.76-19.8-7.55999,0.72-12.84,0.64789-20.28,0.31175,3.12,6.59999,6.84001,17.20826,10.56,26.92825,3.96,10.43999,7.68001,21.24001,10.32,29.16,5.28-0.6,12.28799-0.38385,17.76-0.0958,2.49596-7.44018,6.84001-17.90423,10.92-28.22422,3.96-9.83999,8.52001-21.00001,11.16-27.24z" stroke="#000" stroke-miterlimit="4" stroke-width="4" fill="none"/>
	<g stroke="#000" fill="#777">
		<path d="m9,63.436,0,4,692.6875,0,0-4z"/>
		<path d="m9,263.436,0,4,692.6875,0,0-4z"/>
		<g transform="translate(-170,-14) scale(1.233)">
		<path d="m166.91753,25.68,0-4.38-5.04,0,0-8.76-5.28,0,0,8.76-4.26,0,0,4.38,4.26,0,0,20.7c0,3.78,1.14,6.72,6.36,6.72,0.54,0,2.04-0.24,3.96-0.42v-4.14h-1.86c-1.08,0-3.18,0-3.18-2.46v-20.4h5.04"/>
		<path d="m197.59815,31.32c0-8.94-6.12-10.92-10.98-10.92-5.03999,0-7.68,3.12-9.18,5.1h-0.12v-15.9h-5.28v43.08h5.28v-17.1c0-7.92,4.44001-10.44,8.76-10.44,5.04,0,6.24,2.76,6.24,7.02v20.52h5.28v-21.36"/>
		<path d="m226.79659,42.84c-0.18,2.34-3.12,6.18-8.1,6.18-6.05999,0-9.12-3.78-9.12-10.32h22.92c0-11.1-4.44001-18.3-13.5-18.3-10.37999,0-15.06,7.74-15.06,17.46,0,9.06,5.22001,15.72,14.04,15.72,5.04,0,7.08-1.2,8.52-2.16,3.96-2.64,5.4-7.08,5.58-8.58h-5.28m-17.22-8.34c0-4.86,3.84001-9.36,8.7-9.36,6.41999,0,8.46,4.5,8.76,9.36h-17.46"/>
		<path d="m267.29565,25.68,0-4.38-5.28,0,0-3.9c0-2.52,0.84001-3.66,3.12-3.66,0.66,0,1.5,0.06,2.16,0.12v-4.74c-0.84-0.06-1.62-0.12-2.4-0.12-5.15999,0-8.16,2.16-8.16,6.9v5.4h-4.32v4.38h4.32v27h5.28v-27h5.28"/>
		<path d="m297.55628,52.68,0-31.38-5.28,0,0,17.28c0,4.56-1.98001,10.44-8.64,10.44-3.42,0-6.06-1.74-6.06-6.9v-20.82h-5.28v22.56c0,7.5,5.58,9.72,10.2,9.72,5.03999,0,7.74-1.92,9.96-5.58l0.12,0.12v4.56h4.98"/>
		<path d="m317.03472,25.68,0-4.38-5.04,0,0-8.76-5.28,0,0,8.76-4.26,0,0,4.38,4.26,0,0,20.7c0,3.78,1.14,6.72,6.36,6.72,0.54,0,2.04-0.24,3.96-0.42v-4.14h-1.86c-1.08,0-3.18,0-3.18-2.46v-20.4h5.04"/>
		<path d="m347.59534,52.68,0-31.38-5.28,0,0,17.28c0,4.56-1.98001,10.44-8.64,10.44-3.42,0-6.06-1.74-6.06-6.9v-20.82h-5.28v22.56c0,7.5,5.58001,9.72,10.2,9.72,5.04,0,7.74-1.92,9.96-5.58l0.12,0.12v4.56h4.98"/>
		<path d="m361.55378,34.44c0-4.56,3.12-8.4,8.04-8.4h1.98v-5.46c-0.42-0.12-0.72-0.18-1.38-0.18-3.96,0-6.72,2.46-8.82,6.12h-0.12v-5.22h-4.98v31.38h5.28v-18.24"/>
		<path d="m396.95284,42.84c-0.18,2.34-3.12,6.18-8.1,6.18-6.05999,0-9.12-3.78-9.12-10.32h22.92c0-11.1-4.44001-18.3-13.5-18.3-10.37999,0-15.06,7.74-15.06,17.46,0,9.06,5.22001,15.72,14.04,15.72,5.04,0,7.08-1.2,8.52-2.16,3.96-2.64,5.4-7.08,5.58-8.58h-5.28m-17.22-8.34c0-4.86,3.84001-9.36,8.7-9.36,6.41999,0,8.46,4.5,8.76,9.36h-17.46"/>
		<path d="m423.8319,36.96c0,8.1,4.56001,16.56,14.58,16.56s14.58-8.46,14.58-16.56-4.56001-16.56-14.58-16.56-14.58,8.46-14.58,16.56m5.46,0c0-4.2,1.56001-12,9.12-12,7.56,0,9.12,7.8,9.12,12s-1.56,12-9.12,12c-7.55999,0-9.12-7.8-9.12-12"/>
		<path d="m470.85034,25.68,0-4.38-5.28,0,0-3.9c0-2.52,0.84-3.66,3.12-3.66,0.66,0,1.5,0.06,2.16,0.12v-4.74c-0.84-0.06-1.62-0.12-2.4-0.12-5.15999,0-8.16,2.16-8.16,6.9v5.4h-4.32v4.38h4.32v27h5.28v-27h5.28"/>
		<path d="m503.83159,25.68,0-4.38-5.04,0,0-8.76-5.28,0,0,8.76-4.26,0,0,4.38,4.26,0,0,20.7c0,3.78,1.14001,6.72,6.36,6.72,0.54,0,2.04-0.24,3.96-0.42v-4.14h-1.86c-1.08,0-3.18,0-3.18-2.46v-20.4h5.04"/>
		<path d="m534.51222,31.32c0-8.94-6.12001-10.92-10.98-10.92-5.04,0-7.68001,3.12-9.18,5.1h-0.12v-15.9h-5.28v43.08h5.28v-17.1c0-7.92,4.44-10.44,8.76-10.44,5.03999,0,6.24,2.76,6.24,7.02v20.52h5.28v-21.36"/>
		<path d="m563.71065,42.84c-0.18,2.34-3.12,6.18-8.1,6.18-6.05999,0-9.12-3.78-9.12-10.32h22.92c0-11.1-4.44001-18.3-13.5-18.3-10.37999,0-15.06,7.74-15.06,17.46,0,9.06,5.22001,15.72,14.04,15.72,5.04,0,7.08-1.2,8.52-2.16,3.96-2.64,5.4-7.08,5.58-8.58h-5.28m-17.22-8.34c0-4.86,3.84001-9.36,8.7-9.36,6.42,0,8.46,4.5,8.76,9.36h-17.46"/>
		<path d="m597.00972,38.46c0-5.1,0.84-13.32,8.46-13.32,8.15999,0,8.58,7.74,8.58,11.76,0,6.9-2.70001,12.12-8.46,12.12-3.36,0-8.58-2.22-8.58-10.56m-5.04,26.64,5.28,0,0-15.72,0.12,0c1.37999,2.22,4.14,4.2,8.34,4.2,10.67998,0,13.8-10.02,13.8-17.52,0-8.82-4.74001-15.66-13.08-15.66-5.7,0-8.10001,3.54-9.36,5.34h-0.12v-4.44h-4.98v43.8"/>
		<path d="m630.46815,30.84c0.36-2.4,1.20001-6.06,7.2-6.06,4.98,0,7.38,1.8,7.38,5.1,0,3.12-1.5,3.6-2.76,3.72l-8.7,1.08c-8.75999,1.08-9.54,7.2-9.54,9.84,0,5.4,4.08001,9.06,9.84,9.06,6.12,0,9.30001-2.88,11.34-5.1,0.18,2.4,0.90001,4.8,5.58,4.8,1.2,0,1.98-0.36,2.88-0.6v-3.84c-0.6,0.12-1.26,0.24-1.74,0.24-1.08,0-1.74-0.54-1.74-1.86v-18.06c0-8.04-9.12-8.76-11.64-8.76-7.73999,0-12.72,2.94-12.96,10.44h4.86m14.46,10.98c0,4.2-4.8,7.38-9.72,7.38-3.95999,0-5.7-2.04-5.7-5.46,0-3.96,4.14001-4.74,6.72-5.1,6.54-0.84,7.86-1.32,8.7-1.98v5.16"/>
		<path d="m682.10659,30.24c0-1.56-0.78001-9.84-12-9.84-6.17999,0-11.88,3.12-11.88,10.02,0,4.32,2.88,6.54,7.26,7.62l6.12,1.5c4.5,1.14,6.24,1.98,6.24,4.5,0,3.48-3.42,4.98-7.2,4.98-7.43999,0-8.16-3.96-8.34-6.42h-5.1c0.18,3.78,1.08001,10.98,13.5,10.98,7.07999,0,12.42-3.9,12.42-10.38,0-4.26-2.28001-6.66-8.82-8.28l-5.28-1.32c-4.08-1.02-5.7-1.62-5.7-4.2,0-3.9,4.62-4.44,6.24-4.44,6.65999,0,7.38,3.3,7.44,5.28h5.1"/>
		<path d="m700.70659,25.68,0-4.38-5.04,0,0-8.76-5.28,0,0,8.76-4.26,0,0,4.38,4.26,0,0,20.7c0,3.78,1.14001,6.72,6.36,6.72,0.54,0,2.04-0.24,3.96-0.42v-4.14h-1.86c-1.08,0-3.18,0-3.18-2.46v-20.4h5.04"/>
		</g>
	</g>
</svg>
